<?xml version="1.0" encoding="utf-8"?>
<svg viewBox="86.635 141.757 350.894 169.562" width="350.894" height="169.562" xmlns="http://www.w3.org/2000/svg">
  <defs>
    <linearGradient id="gradient-0" gradientUnits="userSpaceOnUse" x1="256.464" y1="44.014" x2="256.464" y2="126.894" gradientTransform="matrix(0, 1.991059, -1.991059, 0, 401.608398, -383.740857)">
      <stop offset="0" style="stop-color: rgba(245, 245, 245, 1)"/>
      <stop offset="1" style="stop-color: rgb(255, 255, 255);"/>
    </linearGradient>
    <linearGradient id="gradient-1" gradientUnits="userSpaceOnUse" x1="317.952" y1="125.664" x2="317.952" y2="210.894" gradientTransform="matrix(0, 1.929364, -1.929364, 0, 555.661303, -402.551241)">
      <stop offset="0" style="stop-color: rgba(245, 245, 245, 1)"/>
      <stop offset="1" style="stop-color: rgb(255, 255, 255);"/>
    </linearGradient>
  </defs>
  <path d="M 142.505 121.294 L 142.505 48.494 C 142.505 47.301 142.952 46.254 143.845 45.354 C 144.745 44.461 145.865 44.014 147.205 44.014 L 169.385 44.014 C 187.078 44.014 195.925 51.817 195.925 67.424 C 195.925 73.544 194.602 78.471 191.955 82.204 C 189.302 85.937 185.735 88.477 181.255 89.824 L 195.925 117.034 C 196.298 117.481 196.485 118.077 196.485 118.824 C 196.485 120.691 195.515 122.427 193.575 124.034 C 191.635 125.641 189.582 126.444 187.415 126.444 C 185.248 126.444 183.568 125.287 182.375 122.974 L 166.475 92.064 L 157.065 92.064 L 157.065 121.294 C 157.065 122.714 156.355 123.834 154.935 124.654 C 153.515 125.474 151.798 125.884 149.785 125.884 C 147.845 125.884 146.145 125.474 144.685 124.654 C 143.232 123.834 142.505 122.714 142.505 121.294 Z M 157.065 56.784 L 157.065 80.634 L 169.385 80.634 C 177.372 80.634 181.365 76.677 181.365 68.764 C 181.365 60.777 177.372 56.784 169.385 56.784 L 157.065 56.784 Z M 203.656 104.154 L 203.656 77.274 C 203.656 76.154 204.382 75.111 205.836 74.144 C 207.296 73.171 208.996 72.684 210.936 72.684 C 212.802 72.684 214.462 73.171 215.916 74.144 C 217.376 75.111 218.106 76.154 218.106 77.274 L 218.106 104.154 C 218.106 106.767 219.076 109.101 221.016 111.154 C 222.956 113.207 225.269 114.234 227.956 114.234 C 230.649 114.234 232.946 113.207 234.846 111.154 C 236.752 109.101 237.706 106.767 237.706 104.154 L 237.706 77.164 C 237.706 75.971 238.432 74.924 239.886 74.024 C 241.346 73.131 243.046 72.684 244.986 72.684 C 247.072 72.684 248.789 73.131 250.136 74.024 C 251.482 74.924 252.156 75.971 252.156 77.164 L 252.156 104.154 C 252.156 110.201 249.766 115.504 244.986 120.064 C 240.206 124.617 234.529 126.894 227.956 126.894 C 221.389 126.894 215.696 124.617 210.876 120.064 C 206.062 115.504 203.656 110.201 203.656 104.154 Z M 259.883 117.264 C 259.883 115.917 260.366 114.517 261.333 113.064 C 262.306 111.604 263.426 110.874 264.693 110.874 C 265.513 110.874 266.539 111.284 267.773 112.104 C 269.006 112.931 270.629 113.771 272.643 114.624 C 274.663 115.484 277.053 115.914 279.813 115.914 C 285.266 115.914 287.993 114.311 287.993 111.104 C 287.993 109.311 287.076 107.891 285.243 106.844 C 283.416 105.797 281.216 104.937 278.643 104.264 C 276.063 103.597 273.466 102.797 270.853 101.864 C 268.239 100.931 266.019 99.361 264.193 97.154 C 262.359 94.954 261.443 92.137 261.443 88.704 C 261.443 84.144 263.049 80.224 266.263 76.944 C 269.476 73.657 274.553 72.014 281.493 72.014 C 286.126 72.014 290.253 72.724 293.873 74.144 C 297.493 75.557 299.303 77.274 299.303 79.294 C 299.303 80.561 298.799 82.034 297.793 83.714 C 296.786 85.394 295.536 86.234 294.043 86.234 C 293.443 86.234 291.816 85.694 289.163 84.614 C 286.516 83.527 284.036 82.984 281.723 82.984 C 279.183 82.984 277.239 83.507 275.893 84.554 C 274.553 85.601 273.883 86.757 273.883 88.024 C 273.883 89.297 274.553 90.344 275.893 91.164 C 277.239 91.984 278.903 92.617 280.883 93.064 C 282.856 93.517 285.003 94.134 287.323 94.914 C 289.636 95.701 291.783 96.617 293.763 97.664 C 295.736 98.704 297.396 100.327 298.743 102.534 C 300.089 104.734 300.763 107.404 300.763 110.544 C 300.763 115.617 298.949 119.611 295.323 122.524 C 291.703 125.437 286.646 126.894 280.153 126.894 C 274.553 126.894 269.773 125.924 265.813 123.984 C 261.859 122.037 259.883 119.797 259.883 117.264 Z M 309.16 107.744 L 309.16 53.424 C 309.16 52.151 309.906 51.084 311.4 50.224 C 312.893 49.371 314.536 48.944 316.33 48.944 C 318.27 48.944 319.966 49.371 321.42 50.224 C 322.88 51.084 323.61 52.151 323.61 53.424 L 323.61 72.684 L 336.82 72.684 C 337.94 72.684 338.836 73.207 339.51 74.254 C 340.183 75.301 340.52 76.531 340.52 77.944 C 340.52 79.364 340.183 80.597 339.51 81.644 C 338.836 82.691 337.94 83.214 336.82 83.214 L 323.61 83.214 L 323.61 107.744 C 323.61 109.904 324.076 111.434 325.01 112.334 C 325.943 113.227 327.566 113.674 329.88 113.674 L 334.25 113.674 C 336.19 113.674 337.7 114.271 338.78 115.464 C 339.866 116.664 340.41 118.084 340.41 119.724 C 340.41 121.444 339.866 122.901 338.78 124.094 C 337.7 125.287 336.19 125.884 334.25 125.884 L 329.88 125.884 C 316.066 125.884 309.16 119.837 309.16 107.744 Z M 370.423 107.854 C 370.423 107.854 362.54 127.864 362.913 121.964 L 343.653 80.744 C 343.353 79.997 343.203 79.364 343.203 78.844 C 343.203 77.051 344.306 75.444 346.513 74.024 C 348.713 72.611 350.82 71.904 352.833 71.904 C 355.073 71.904 356.456 72.724 356.983 74.364 L 370.423 107.854 Z" transform="matrix(1, 0, 0, 1, -55.869873, 100.424324)" style="white-space: pre; fill: url(#gradient-0);"/>
  <path d="M 142.505 205.294 L 142.505 132.494 C 142.505 131.301 142.952 130.254 143.845 129.354 C 144.745 128.461 145.865 128.014 147.205 128.014 L 169.385 128.014 C 187.078 128.014 195.925 135.817 195.925 151.424 C 195.925 157.544 194.602 162.471 191.955 166.204 C 189.302 169.937 185.735 172.477 181.255 173.824 L 195.925 201.034 C 196.298 201.481 196.485 202.077 196.485 202.824 C 196.485 204.691 195.515 206.427 193.575 208.034 C 191.635 209.641 189.582 210.444 187.415 210.444 C 185.248 210.444 183.568 209.287 182.375 206.974 L 166.475 176.064 L 157.065 176.064 L 157.065 205.294 C 157.065 206.714 156.355 207.834 154.935 208.654 C 153.515 209.474 151.798 209.884 149.785 209.884 C 147.845 209.884 146.145 209.474 144.685 208.654 C 143.232 207.834 142.505 206.714 142.505 205.294 Z M 157.065 140.784 L 157.065 164.634 L 169.385 164.634 C 177.372 164.634 181.365 160.677 181.365 152.764 C 181.365 144.777 177.372 140.784 169.385 140.784 L 157.065 140.784 Z M 201.86 187.934 L 201.86 178.744 C 201.86 172.624 204.25 167.304 209.03 162.784 C 213.81 158.271 219.523 156.014 226.17 156.014 C 232.663 156.014 238.336 158.254 243.19 162.734 C 248.043 167.214 250.47 172.551 250.47 178.744 L 250.47 187.934 C 250.47 193.981 248.043 199.317 243.19 203.944 C 238.336 208.577 232.663 210.894 226.17 210.894 C 219.67 210.894 213.993 208.577 209.14 203.944 C 204.286 199.317 201.86 193.981 201.86 187.934 Z M 216.31 178.744 L 216.31 187.934 C 216.31 190.621 217.28 193.011 219.22 195.104 C 221.166 197.191 223.483 198.234 226.17 198.234 C 228.783 198.234 231.08 197.191 233.06 195.104 C 235.033 193.011 236.02 190.621 236.02 187.934 L 236.02 178.744 C 236.02 176.211 235.033 173.897 233.06 171.804 C 231.08 169.711 228.783 168.664 226.17 168.664 C 223.483 168.664 221.166 169.691 219.22 171.744 C 217.28 173.797 216.31 176.131 216.31 178.744 Z M 257.865 187.934 L 257.865 178.974 C 257.865 172.101 259.881 166.557 263.915 162.344 C 267.941 158.124 273.988 156.014 282.055 156.014 C 287.135 156.014 291.391 156.911 294.825 158.704 C 298.258 160.491 299.975 162.504 299.975 164.744 C 299.975 166.317 299.415 167.887 298.295 169.454 C 297.175 171.021 295.831 171.804 294.265 171.804 C 293.818 171.804 292.491 171.281 290.285 170.234 C 288.085 169.187 285.715 168.664 283.175 168.664 C 275.935 168.664 272.315 172.101 272.315 178.974 L 272.315 187.934 C 272.315 194.801 275.971 198.234 283.285 198.234 C 285.825 198.234 288.178 197.674 290.345 196.554 C 292.511 195.434 293.891 194.874 294.485 194.874 C 296.278 194.874 297.755 195.621 298.915 197.114 C 300.068 198.607 300.645 200.137 300.645 201.704 C 300.645 204.024 298.835 206.134 295.215 208.034 C 291.595 209.941 287.245 210.894 282.165 210.894 C 274.025 210.894 267.941 208.804 263.915 204.624 C 259.881 200.437 257.865 194.874 257.865 187.934 Z M 308.372 205.294 L 308.372 130.144 C 308.372 128.797 309.025 127.714 310.332 126.894 C 311.638 126.074 313.338 125.664 315.432 125.664 C 317.518 125.664 319.272 126.074 320.692 126.894 C 322.112 127.714 322.822 128.797 322.822 130.144 L 322.822 177.064 L 335.344 174.194 L 355.862 201.264 C 356.382 202.011 356.642 202.794 356.642 203.614 C 356.642 205.254 355.728 206.857 353.902 208.424 C 352.075 209.997 350.265 210.784 348.472 210.784 C 346.978 210.784 345.782 210.147 344.882 208.874 L 329.762 186.584 L 322.822 192.974 L 322.822 205.294 C 322.822 206.414 322.075 207.457 320.582 208.424 C 319.088 209.397 317.372 209.884 315.432 209.884 C 313.412 209.884 311.732 209.417 310.392 208.484 C 309.045 207.551 308.372 206.487 308.372 205.294 Z M 360.449 187.934 L 360.449 178.414 C 360.449 172.287 362.839 167.024 367.619 162.624 C 372.399 158.217 378.185 156.014 384.979 156.014 C 391.325 156.014 396.759 158.011 401.279 162.004 C 405.792 165.997 408.049 171.017 408.049 177.064 C 408.049 179.304 407.769 181.154 407.209 182.614 C 406.649 184.067 405.792 185.094 404.639 185.694 C 403.479 186.287 402.415 186.661 401.449 186.814 C 400.475 186.961 399.205 187.034 397.639 187.034 L 374.899 187.034 L 374.899 188.714 C 374.899 191.927 376.095 194.524 378.489 196.504 C 380.875 198.477 384.049 199.464 388.009 199.464 C 390.842 199.464 393.642 198.757 396.409 197.344 C 399.169 195.924 400.959 195.214 401.779 195.214 C 403.345 195.214 404.652 195.941 405.699 197.394 C 406.745 198.854 407.269 200.254 407.269 201.594 C 407.269 203.687 405.382 205.761 401.609 207.814 C 397.842 209.867 393.159 210.894 387.559 210.894 C 379.565 210.894 373.049 208.784 368.009 204.564 C 362.969 200.344 360.449 194.801 360.449 187.934 Z M 374.899 175.384 L 374.899 178.524 L 391.249 178.524 C 392.449 178.524 393.289 178.317 393.769 177.904 C 394.255 177.497 394.499 176.697 394.499 175.504 C 394.499 172.891 393.549 170.761 391.649 169.114 C 389.742 167.474 387.409 166.654 384.649 166.654 C 382.035 166.654 379.755 167.457 377.809 169.064 C 375.869 170.664 374.899 172.771 374.899 175.384 Z M 416.566 191.744 L 416.566 137.424 C 416.566 136.151 417.312 135.084 418.806 134.224 C 420.299 133.371 421.942 132.944 423.736 132.944 C 425.676 132.944 427.372 133.371 428.826 134.224 C 430.286 135.084 431.016 136.151 431.016 137.424 L 431.016 156.684 L 444.226 156.684 C 445.346 156.684 446.242 157.207 446.916 158.254 C 447.589 159.301 447.926 160.531 447.926 161.944 C 447.926 163.364 447.589 164.597 446.916 165.644 C 446.242 166.691 445.346 167.214 444.226 167.214 L 431.016 167.214 L 431.016 191.744 C 431.016 193.904 431.482 195.434 432.416 196.334 C 433.349 197.227 434.972 197.674 437.286 197.674 L 441.656 197.674 C 443.596 197.674 445.106 198.271 446.186 199.464 C 447.272 200.664 447.816 202.084 447.816 203.724 C 447.816 205.444 447.272 206.901 446.186 208.094 C 445.106 209.287 443.596 209.884 441.656 209.884 L 437.286 209.884 C 423.472 209.884 416.566 203.837 416.566 191.744 Z M 452.519 201.264 C 452.519 199.917 453.002 198.517 453.969 197.064 C 454.942 195.604 456.062 194.874 457.329 194.874 C 458.149 194.874 459.176 195.284 460.409 196.104 C 461.642 196.931 463.266 197.771 465.279 198.624 C 467.299 199.484 469.689 199.914 472.449 199.914 C 477.902 199.914 480.629 198.311 480.629 195.104 C 480.629 193.311 479.712 191.891 477.879 190.844 C 476.052 189.797 473.852 188.937 471.279 188.264 C 468.699 187.597 466.102 186.797 463.489 185.864 C 460.876 184.931 458.656 183.361 456.829 181.154 C 454.996 178.954 454.079 176.137 454.079 172.704 C 454.079 168.144 455.686 164.224 458.899 160.944 C 462.112 157.657 467.189 156.014 474.129 156.014 C 478.762 156.014 482.889 156.724 486.509 158.144 C 490.129 159.557 491.939 161.274 491.939 163.294 C 491.939 164.561 491.436 166.034 490.429 167.714 C 489.422 169.394 488.172 170.234 486.679 170.234 C 486.079 170.234 484.452 169.694 481.799 168.614 C 479.152 167.527 476.672 166.984 474.359 166.984 C 471.819 166.984 469.876 167.507 468.529 168.554 C 467.189 169.601 466.519 170.757 466.519 172.024 C 466.519 173.297 467.189 174.344 468.529 175.164 C 469.876 175.984 471.539 176.617 473.519 177.064 C 475.492 177.517 477.639 178.134 479.959 178.914 C 482.272 179.701 484.419 180.617 486.399 181.664 C 488.372 182.704 490.032 184.327 491.379 186.534 C 492.726 188.734 493.399 191.404 493.399 194.544 C 493.399 199.617 491.586 203.611 487.959 206.524 C 484.339 209.437 479.282 210.894 472.789 210.894 C 467.189 210.894 462.409 209.924 458.449 207.984 C 454.496 206.037 452.519 203.797 452.519 201.264 Z" transform="matrix(1, 0, 0, 1, -55.869873, 100.424324)" style="white-space: pre; fill: url(#gradient-1);"/>
  <path style="stroke-linecap: round; fill: none; stroke-width: 12px; stroke: rgb(245, 245, 245);" d="M 261.669 303.394 C 292.393 233.86 291.278 219.76 379.065 176.803"/>
  <g transform="matrix(0.083446, 0.030372, -0.030372, 0.083446, 315.693237, 165.032883)">
    <g id="Layer_2" transform="matrix(1, 0, 0, 1, 586.871033, -499.648254)">
      <path fill="#FFB636" d="M204.854,309.75c0,0,0.227,0.595,0.668,1.748c0.208,0.564,0.522,1.32,0.791,2.115 c0.28,0.805,0.604,1.739,0.971,2.795c0.38,1.069,0.689,2.149,1.094,3.4c0.386,1.234,0.843,2.615,1.201,3.973 c0.388,1.388,0.805,2.879,1.25,4.47c0.412,1.558,0.758,3.122,1.175,4.826c1.656,6.804,3.021,14.419,3.798,22.366 c0.426,4.01,0.607,8.007,0.696,12.117c0.006,4.028-0.091,8.159-0.468,12.194c-0.379,4.033-0.978,8.03-1.825,11.94 c-0.862,3.895-1.972,7.702-3.351,11.379c-2.757,7.354-6.624,14.15-11.647,20.157c-2.485,3.031-5.389,5.734-8.266,8.533 c-2.918,2.758-5.904,5.517-9.021,8.191c-6.204,5.378-12.798,10.549-19.729,15.385c-6.908,4.858-14.174,9.358-21.627,13.487 c-3.736,2.055-7.531,4.005-11.347,5.865c-3.834,1.842-7.702,3.581-11.582,5.217c-7.784,3.247-15.627,6.066-23.403,8.401 c-7.761,2.35-15.446,4.225-22.815,5.681c-14.714,2.934-28.219,4.137-38.257,4.394c-1.265,0.022-2.462,0.043-3.589,0.062 c-1.147-0.001-2.222-0.002-3.223-0.003c-2.054-0.055-3.801-0.101-5.218-0.139c-1.465-0.086-2.588-0.152-3.345-0.196 c-0.78-0.068-1.182-0.102-1.182-0.102s-0.035-0.403-0.102-1.182c-0.044-0.757-0.11-1.88-0.196-3.345 c-0.038-1.417-0.084-3.164-0.139-5.218c-0.001-1-0.002-2.076-0.003-3.223c0.02-1.127,0.04-2.324,0.062-3.589 c0.257-10.038,1.459-23.543,4.394-38.257c1.456-7.368,3.331-15.053,5.68-22.815c2.335-7.776,5.154-15.62,8.401-23.403 c1.636-3.88,3.375-7.747,5.217-11.582c1.86-3.816,3.81-7.611,5.865-11.347c4.129-7.453,8.629-14.719,13.487-21.627 c4.835-6.931,10.007-13.525,15.385-19.729c2.674-3.117,5.432-6.104,8.191-9.021c2.799-2.877,5.502-5.781,8.533-8.266 c6.008-5.023,12.803-8.89,20.157-11.647c3.677-1.378,7.484-2.489,11.379-3.351c3.91-0.847,7.907-1.446,11.94-1.825 c4.035-0.377,8.167-0.474,12.194-0.468c4.11,0.088,8.106,0.27,12.117,0.696c7.947,0.777,15.562,2.141,22.366,3.798 c1.703,0.416,3.267,0.763,4.826,1.175c1.591,0.445,3.082,0.862,4.47,1.25c1.358,0.359,2.74,0.815,3.973,1.201 c1.252,0.404,2.331,0.714,3.4,1.094c1.056,0.367,1.989,0.691,2.795,0.971c0.795,0.269,1.551,0.583,2.115,0.791 C204.259,309.522,204.854,309.75,204.854,309.75z"/>
    </g>
    <g id="Layer_3" transform="matrix(1, 0, 0, 1, 586.871033, -499.648254)">
      <path fill="#FF473E" d="M76.86,181.752L4.346,254.266c-5.012,5.012-1.462,13.582,5.626,13.582h60.945 c2.11,0,4.134,0.838,5.626,2.33l39.572,39.572l64.271-130.328h-97.9C80.376,179.421,78.352,180.26,76.86,181.752z"/>
    </g>
    <g id="Layer_4" transform="matrix(1, 0, 0, 1, 586.871033, -499.648254)">
      <path fill="#FF473E" d="M216.161,392.592l39.572,39.572c1.492,1.492,2.33,3.516,2.33,5.626v60.945 c0,7.088,8.57,10.638,13.582,5.626l72.514-72.514c1.492-1.492,2.33-3.516,2.33-5.626v-97.9L216.161,392.592z"/>
    </g>
    <g id="Layer_5" transform="matrix(1, 0, 0, 1, 586.871033, -499.648254)">
      <path fill="#ADBBBC" d="M505.647,17.875c0,0,0.026,0.215,0.077,0.637c0.047,0.419,0.139,1.065,0.205,1.862 c0.131,1.593,0.428,4.061,0.569,7.033c0.452,6.114,0.756,14.721,0.543,25.076c-0.207,10.361-0.937,22.464-2.519,35.602 c-0.354,3.326-0.859,6.619-1.347,10.041c-0.453,3.457-1.098,6.834-1.687,10.373c-1.21,7.047-2.72,14.218-4.463,21.533 c-3.499,14.618-8.067,29.676-13.805,44.697c-5.738,15.021-12.624,30.025-20.695,44.6c-8.083,14.563-17.278,28.768-27.555,42.27 c-10.263,13.515-21.594,26.34-33.751,38.338c-12.157,11.999-25.124,23.187-38.748,33.341c-3.407,2.537-6.834,5.032-10.338,7.419 c-3.466,2.426-7.007,4.746-10.536,7.044c-7.092,4.562-14.334,8.831-21.651,12.837c-14.639,8.007-29.64,14.897-44.669,20.626 c-15.029,5.729-30.067,10.318-44.644,13.858c-7.299,1.759-14.432,3.307-21.467,4.528c-1.749,0.315-3.476,0.626-5.179,0.933 c-1.716,0.294-3.457,0.536-5.147,0.801c-1.696,0.259-3.368,0.514-5.015,0.765c-1.684,0.214-3.342,0.426-4.974,0.633 c-13.067,1.653-25.09,2.463-35.375,2.746c-10.274,0.294-18.832,0.04-24.876-0.343c-2.942-0.111-5.394-0.393-6.968-0.504 c-0.789-0.058-1.43-0.145-1.844-0.187c-0.418-0.047-0.631-0.07-0.631-0.07c-4.782-0.533-8.409-4.329-8.919-8.919 c0,0-0.024-0.212-0.07-0.63c-0.042-0.414-0.129-1.055-0.187-1.844c-0.111-1.574-0.393-4.025-0.504-6.968 c-0.382-6.044-0.636-14.601-0.343-24.876c0.283-10.285,1.093-22.308,2.746-35.375c0.208-1.632,0.419-3.291,0.633-4.974 c0.251-1.647,0.506-3.319,0.765-5.015c0.265-1.69,0.508-3.43,0.801-5.147c0.307-1.703,0.618-3.43,0.933-5.179 c1.221-7.035,2.769-14.168,4.528-21.467c3.539-14.578,8.128-29.615,13.858-44.644c5.73-15.029,12.62-30.03,20.626-44.669 c4.007-7.316,8.276-14.559,12.837-21.651c2.298-3.529,4.618-7.07,7.044-10.536c2.387-3.505,4.882-6.931,7.419-10.338 c10.154-13.624,21.342-26.592,33.341-38.748c11.998-12.157,24.823-23.488,38.338-33.751c13.502-10.276,27.707-19.472,42.27-27.555 c14.575-8.071,29.58-14.957,44.6-20.695c15.021-5.738,30.079-10.306,44.697-13.805c7.315-1.743,14.486-3.253,21.533-4.463 c3.539-0.589,6.916-1.234,10.373-1.687c3.422-0.488,6.714-0.994,10.041-1.347c13.138-1.582,25.241-2.312,35.602-2.519 c10.355-0.213,18.962,0.09,25.076,0.543c2.972,0.141,5.44,0.439,7.033,0.569c0.797,0.066,1.443,0.157,1.862,0.205 c0.422,0.051,0.637,0.077,0.637,0.077C501.496,9.531,505.097,13.31,505.647,17.875z"/>
    </g>
    <g id="Layer_6" transform="matrix(1, 0, 0, 1, 586.871033, -499.648254)">
      <path fill="#FF473E" d="M243.106,271.497c0,0,0.198,0.537,0.583,1.577c0.325,0.981,0.763,2.392,1.065,3.964 c0.716,3.255,0.953,7.217-0.341,10.663c-0.638,1.732-1.818,3.176-2.929,4.922c-1.141,1.716-2.375,3.572-3.693,5.555 c-2.639,3.963-5.617,8.434-8.865,13.312c-3.278,4.848-6.841,10.088-10.652,15.587c-3.812,5.499-7.869,11.26-12.115,17.172 c-2.137,2.941-4.31,5.932-6.51,8.959c-2.231,2.996-4.489,6.029-6.764,9.085c-4.589,6.076-9.285,12.215-14.06,18.274 c-4.757,6.077-9.574,12.095-14.364,17.97c-4.781,5.885-9.469,11.692-14.083,17.235c-2.298,2.781-4.557,5.516-6.769,8.192 c-2.242,2.646-4.281,5.389-6.649,7.677c-2.353,2.302-5.068,4.116-8.188,5.376c-3.093,1.287-6.479,2.133-9.753,2.923 c-6.57,1.556-12.882,2.693-18.695,3.482c-2.904,0.397-5.681,0.709-8.304,0.944c-2.609,0.248-5.133,0.347-7.345,0.506 c-2.229,0.141-4.357,0.129-6.135,0.192c-1.805,0.036-3.43-0.023-4.702-0.025c-1.299-0.029-2.337-0.094-3.016-0.117 c-0.703-0.047-1.066-0.072-1.066-0.072s-0.024-0.363-0.072-1.066c-0.023-0.679-0.088-1.718-0.117-3.016 c-0.002-1.272-0.061-2.896-0.025-4.702c0.062-1.779,0.051-3.906,0.192-6.135c0.158-2.212,0.258-4.736,0.506-7.345 c0.234-2.622,0.546-5.4,0.944-8.304c0.789-5.813,1.926-12.125,3.482-18.695c0.79-3.273,1.636-6.659,2.923-9.753 c1.26-3.121,3.074-5.835,5.376-8.188c2.288-2.367,5.031-4.406,7.678-6.648c2.677-2.212,5.411-4.471,8.192-6.769 c5.543-4.614,11.35-9.303,17.235-14.083c5.875-4.79,11.893-9.607,17.97-14.364c6.059-4.776,12.198-9.471,18.274-14.06 c3.057-2.276,6.089-4.534,9.085-6.764c3.027-2.2,6.017-4.373,8.959-6.51c5.912-4.245,11.673-8.303,17.172-12.115 c5.5-3.811,10.739-7.375,15.587-10.652c4.878-3.248,9.349-6.226,13.312-8.865c1.983-1.318,3.839-2.552,5.555-3.693 c1.745-1.111,3.189-2.291,4.922-2.929c3.446-1.294,7.408-1.057,10.663-0.341c1.572,0.302,2.983,0.74,3.964,1.065 C242.569,271.299,243.106,271.497,243.106,271.497z"/>
    </g>
    <g id="Layer_7" transform="matrix(1, 0, 0, 1, 586.871033, -499.648254)">
      <path fill="#2B3B47" d="M362.113,206.66c0,29.917-24.253,54.17-54.17,54.17c-29.917,0-54.17-24.253-54.17-54.17 s24.253-54.17,54.17-54.17C337.86,152.49,362.113,176.743,362.113,206.66z M389.342,90.779c-19.044,0-34.482,15.438-34.482,34.482 s15.438,34.482,34.482,34.482s34.482-15.438,34.482-34.482S408.386,90.779,389.342,90.779z"/>
    </g>
  </g>
</svg>